<?xml version="1.0" encoding="utf-8"?>
<svg xmlns="http://www.w3.org/2000/svg" viewBox="0 0 100 100" fill="#000000"><path d="M 27 19 C 20.384534 19 15 24.384534 15 31 L 15 69 C 15 75.615466 20.384534 81 27 81 L 73 81 C 79.615466 81 85 75.615466 85 69 L 85 31 C 85 24.384534 79.615466 19 73 19 L 27 19 z M 27 21 L 73 21 C 78.534534 21 83 25.465466 83 31 L 83 69 C 83 74.534534 78.534534 79 73 79 L 27 79 C 21.465466 79 17 74.534534 17 69 L 17 31 C 17 25.465466 21.465466 21 27 21 z M 27 24 C 23.139805 24 20 27.139805 20 31 L 20 56.429688 A 0.50005 0.50005 0 0 0 20 56.591797 L 20 69 C 20 72.860195 23.139805 76 27 76 L 67.429688 76 A 0.50005 0.50005 0 0 0 67.591797 76 L 73 76 C 76.860195 76 80 72.860195 80 69 L 80 64.595703 A 0.50005 0.50005 0 0 0 80 64.425781 L 80 53.5 A 0.50005 0.50005 0 1 0 79 53.5 L 79 63.292969 L 66.558594 50.851562 C 65.991762 50.284731 65.243958 50 64.5 50 C 63.756042 50 63.008238 50.284731 62.441406 50.851562 L 53 60.292969 L 36.558594 43.851562 C 35.991762 43.284731 35.243958 43 34.5 43 C 33.756042 43 33.008238 43.284731 32.441406 43.851562 L 21 55.292969 L 21 31 C 21 27.680195 23.680195 25 27 25 L 68.5 25 A 0.50005 0.50005 0 1 0 68.5 24 L 27 24 z M 66.5 32 C 64.708334 32 63.301922 32.689878 62.376953 33.730469 C 61.451984 34.77106 61 36.138889 61 37.5 C 61 38.861111 61.451984 40.22894 62.376953 41.269531 C 63.301922 42.310122 64.708334 43 66.5 43 C 69.531645 43 72 40.531643 72 37.5 C 72 34.468357 69.531645 32 66.5 32 z M 66.5 33 C 68.991206 33 71 35.008796 71 37.5 C 71 39.991204 68.991206 42 66.5 42 C 64.958334 42 63.864743 41.439878 63.123047 40.605469 C 62.38135 39.77106 62 38.638889 62 37.5 C 62 36.361111 62.38135 35.22894 63.123047 34.394531 C 63.864743 33.560122 64.958334 33 66.5 33 z M 79.492188 40.992188 A 0.50005 0.50005 0 0 0 79 41.5 L 79 43.5 A 0.50005 0.50005 0 1 0 80 43.5 L 80 41.5 A 0.50005 0.50005 0 0 0 79.492188 40.992188 z M 34.5 44 C 34.990042 44 35.476395 44.183426 35.851562 44.558594 L 52.576172 61.283203 A 0.50005 0.50005 0 0 0 52.720703 61.425781 L 66.292969 75 L 27 75 C 23.680195 75 21 72.319805 21 69 L 21 56.707031 L 33.148438 44.558594 C 33.523605 44.183426 34.009958 44 34.5 44 z M 79.492188 45.992188 A 0.50005 0.50005 0 0 0 79 46.5 L 79 50.5 A 0.50005 0.50005 0 1 0 80 50.5 L 80 46.5 A 0.50005 0.50005 0 0 0 79.492188 45.992188 z M 64.5 51 C 64.990042 51 65.476395 51.183426 65.851562 51.558594 L 79 64.707031 L 79 69 C 79 72.319805 76.319805 75 73 75 L 67.707031 75 L 53.707031 61 L 63.148438 51.558594 C 63.523605 51.183426 64.009958 51 64.5 51 z" fill="#000000"/></svg>
